#!OML:ASF F:\VICON\USERDATA\INSTALL\rory3\rory3.ASF
:FULLY-SPECIFIED
:DEGREES
30
root 0.8194937159810296 17.995417708467414 -6.68548425255481 -2.779542345068556 -0.16832491734639543 3.0429394291023057
lfemur 2.936011875341123 -0.7654254838401571 -28.16872239533357
ltibia 20.08621912247888
lfoot -5.9298964235253475 0.9385704103653014
ltoes -4.018272641144824
rfemur -29.848665008273638 -0.1250380593291478 19.909621194855106
rtibia 42.654763843919675
rfoot -7.083644869420768 -10.696247821113069
rtoes 1.7765808127246956
lowerback nan -0.7998730345358175 -4.3905594788866935
upperback 0.7639381566445775 -1.4216760925529552 0.6450404833495063
thorax -4.719013845379716 -0.6496508518728823 3.080070261673198
lowerneck -16.987762258805873 -2.940536265777321 -2.5550768081829394
upperneck 21.052757517813976 -3.62146183705666 0.6078726913310563
head 9.51595743884136 -1.776769480370756 0.04654960204984285
lclavicle -2.0016527352705659e-16 8.702661541652248e-16
lhumerus -26.333741101364527 -3.332435454231865 83.3019520633716
lradius 26.230923301703008
lwrist 5.509148155949087
lhand -26.7826751659641 23.619779799115943
lfingers nan
lthumb -0.1639249869479119 53.75622563683594
rclavicle -4.290742470988746e-16 6.003536665496218e-16
rhumerus -29.93972137460454 -21.54042187715404 -78.13303522987934
rradius 22.983570532303656
rwrist 7.605659370097708
rhand -17.45084543966277 nan
rfingers nan
rthumb 8.53409774381153 -7.6165982813229824
31
root 0.7687369662445939 17.97655276421539 -6.129133555271922 -1.8110193383321465 1.070790568345981 3.3305240800975233
lfemur 6.455220440368352 -0.7321977426843769 -28.117422128447757
ltibia 14.678429908815872
lfoot -4.1890063753886775 -1.113340975163299
ltoes -6.715698085824766
rfemur -26.969172152497492 3.0092552997227777 18.128564504534797
rtibia 27.390369258295166
rfoot -6.9583066447218584 -13.78882090868889
rtoes 1.2513725661364057
lowerback nan -1.0642452577040693 -4.944491374351401
upperback 0.6770452471454184 -1.837757220720964 0.8008623045198157
thorax -4.636847440865058 -0.8448819785329222 3.589450355126424
lowerneck -17.21997146037079 -2.9269172779739576 -2.537896568351116
upperneck 21.02818911278777 -3.617102530139548 0.6838408195838236
head 9.472030011689634 -1.7617086953197552 0.06554346659959014
lclavicle -1.4641410631707735e-15 1.3865035508145398e-15
lhumerus -24.66459305041617 -4.857356971865766 83.22458573325211
lradius 27.554496573325082
lwrist 5.812755404692407
lhand -26.755083881157553 24.562430714669404
lfingers nan
lthumb -0.09784906764610635 54.77430443516938
rclavicle -1.6414823351768164e-15 1.1804301505263216e-15
rhumerus -30.617009802404 -22.09121540064718 -77.61439973875001
rradius 23.01429757255765
rwrist 7.497244344184648
rhand -17.50559151908814 nan
rfingers nan
rthumb 8.529263550397085 -7.97521051918935
32
root 0.707952583120192 17.977479645658466 -5.326753633959781 -0.9319115699557026 2.5919520680109174 3.818531193854779
lfemur 10.057291087829551 -1.0486078291302279 -28.00992880544516
ltibia 10.014691144005756
lfoot -2.8349924545838574 -2.4644281561550563
ltoes -9.01087339324131
rfemur -26.14885082182243 7.681275248159759 14.361502791313827
rtibia 15.502529749245603
rfoot -9.6036176428585 -17.585720249646755
rtoes -0.39183389291868487
lowerback nan -1.244503524703771 -5.400321061388133
upperback 0.64149578224613 -2.135399026269328 0.8894456395071606
thorax -4.536879482382684 -0.9725211292638418 3.992098653633594
lowerneck -17.14315242499269 -2.901617168421423 -2.5088344773757765
upperneck 21.026321274832156 -3.6160599860171465 0.7456905017970507
head 9.460608201517498 -1.751292146137081 0.07445225912586236
lclavicle -2.076439046605437e-15 -3.4919122934054683e-16
lhumerus -23.0937872170915 -6.008543329588494 83.15369253659962
lradius 28.80817363180347
lwrist 6.378965050745239
lhand -26.458599728896395 25.30180455200405
lfingers nan
lthumb 0.15606019533579119 55.422616696298704
rclavicle -2.7870383205535093e-15 -9.214130658896148e-16
rhumerus -31.03733807035314 -22.842245145206235 -76.96031241469635
rradius 22.727427847391233
rwrist 7.875714641355451
rhand -17.72888948879898 nan
rfingers nan
rthumb 8.449813765343272 -7.616240359270387
33
root 0.6241979153953782 17.936916784276697 -5.075993795474021 -0.3186345847088654 3.724491944403359 4.061620279975438
lfemur 12.883060357078133 -1.7283114507719253 -27.627812643750755
ltibia 8.75199380885682
lfoot -3.132148455603417 -3.1475021255755635
ltoes -10.090502103905482
rfemur -27.040147385423936 8.318165909663778 13.105720788787286
rtibia 14.257256059126153
rfoot -11.782886350180732 -17.83309827241098
rtoes -2.7914498927954114
lowerback nan -1.282964649543247 -5.677807028247782
upperback 0.6054163109090298 -2.2232486699970164 0.956657913360509
thorax -4.522162831037044 -1.0106971793808468 4.176010155127059
lowerneck -17.010604411908883 -2.9614266246376038 -2.571711896547801
upperneck 21.106353370624202 -3.7418381882362994 0.8747213604116056
head 9.46137614893017 -1.7946263140313283 0.10813379069409702
lclavicle -6.009823179637048e-16 1.5383663309880432e-15
lhumerus -21.654482039801596 -6.214310104997848 82.99358074544445
lradius 29.792908469484026
lwrist 7.122738840291998
lhand -26.581563038029635 25.37773013061585
lfingers nan
lthumb 0.07445187548762422 55.61654789545093
rclavicle -1.1514210662876284e-16 1.846972460564966e-15
rhumerus -31.620048982265068 -24.397618018796543 -76.2086985878268
rradius 22.264150838505614
rwrist 8.60796562782436
rhand -17.925993538965812 nan
rfingers nan
rthumb 8.367376966462306 -7.28179719370957
34
root 0.5371200260299905 17.909413409331975 -4.4197822884033915 -0.01769579026075707 4.3147377627421495 3.9614977601458894
lfemur 15.079125914588168 -2.6674866583944428 -27.207007132456013
ltibia 10.308563504246823
lfoot -3.2011096046520064 -2.679159654360476
ltoes -9.855962283356417
rfemur -27.63377347983893 5.436645607888938 15.467352160668645
rtibia 19.09226498752717
rfoot -9.582073547294899 -13.442743682159287
rtoes -4.041164634564231
lowerback nan -1.2818987208529053 -5.585534546527366
upperback 0.618350367634571 -2.136824311777265 1.1591317289774523
thorax -4.433021777905266 -0.9914100769365297 4.179309661155209
lowerneck -17.090891273334954 -2.9653751285146903 -2.6752851555968116
upperneck 21.26074679774454 -3.7522519006400223 0.9591752384802514
head 9.521137150242655 -1.7955709587290698 0.14084698161666312
lclavicle -4.823910565090689e-15 7.186301293056627e-16
lhumerus -21.317948158888626 -6.25035851423881 82.82072672857433
lradius 30.657096162063368
lwrist 7.53620208088125
lhand -26.85180496103588 24.9898077735023
lfingers nan
lthumb -0.16884362353675292 55.30541528932111
rclavicle -5.109473864634032e-15 6.371640323119404e-16
rhumerus -32.4745674021585 -26.018795970427398 -75.12641390021555
rradius 21.511175873928227
rwrist 10.157562942770575
rhand -18.04732333819468 nan
rfingers nan
rthumb 8.268514031056286 -6.922333763280671
35
root 0.4423151063891009 17.859273812647473 -3.6041564275953206 -0.14098277264103087 4.225639044918584 3.868754752308654
lfemur 17.167482847235966 -4.0129754111592755 -26.707201013095133
ltibia 14.034996793246595
lfoot -3.3479827513643623 -3.4071378318296697
ltoes -9.964111960896165
rfemur -27.356128212755777 4.713467965319491 16.950606245458772
rtibia 23.200969695014923
rfoot -7.203810908236048 -11.765621192261618
rtoes -5.50051078256446
lowerback nan -1.2723545918581358 -5.442844788042913
upperback 0.615156968091345 -2.112038857870083 1.2944141290743991
thorax -4.342303490322796 -0.9435795085791352 4.177754835442836
lowerneck -17.142436841945518 -2.960117571099645 -2.662337487849699
upperneck 21.450301130371226 -3.7416822491618222 0.9528642516795445
head 9.590363455373076 -1.7894549276751819 0.1448307201767158
lclavicle -3.0945788143868635e-15 -1.5646937509750998e-16
lhumerus -21.08455507517912 -5.798094443688913 82.97240596198874
lradius 31.01667326767092
lwrist 7.768514787372839
lhand -27.273741357389596 24.35479170517383
lfingers nan
lthumb -0.5381396944531259 54.71572637986054
rclavicle -3.910186198001249e-15 -7.69106566554394e-16
rhumerus -33.413949367568925 -27.581126862787873 -74.2038459324776
rradius 20.82842808380778
rwrist 11.546930478883418
rhand -18.134053086664274 nan
rfingers nan
rthumb 8.218899386336576 -6.7816081267332065
36
root 0.3538350429462347 17.813592283802524 -2.908669800934396 -0.5670294148233166 3.5489663089068535 2.746806717080734
lfemur 17.40934905892142 -5.894013365846377 -25.779056750789028
ltibia 19.46492241795135
lfoot -1.6548573075114392 -5.054330471039244
ltoes -10.840379513149317
rfemur -26.619919810043882 4.4681226380410415 18.63970185488005
rtibia 25.71328493922833
rfoot -5.207016146407144 -7.879105474197083
rtoes -3.5375976392943147
lowerback nan -1.3197641232719635 -4.451493146668278
upperback 0.47182668928279903 -1.9963391108314616 1.5983404551767773
thorax -4.451905541550011 -0.9021052140039163 3.8878341948349235
lowerneck -17.38355945439041 -2.8306039774023373 -2.648593505969083
upperneck 21.675453250367312 -3.520899419578064 0.8185841077622961
head 9.656354823163225 -1.7123325265935494 0.12695359867179773
lclavicle 6.344195060186903e-16 1.5240470770582278e-15
lhumerus -21.50860093865621 -4.955327061403468 83.07420104194416
lradius 31.049576391613286
lwrist 7.97993438558365
lhand -27.86843869524772 23.355968573194794
lfingers nan
lthumb -1.0977561765593937 53.728388077114346
rclavicle 7.058567211190822e-16 1.6215371257326684e-15
rhumerus -34.20534244389666 -29.23029826119351 -73.15819947125205
rradius 19.981825481730308
rwrist 13.2074003474887
rhand -18.080960535184143 nan
rfingers nan
rthumb 8.263955489707085 -6.955577443143243
37
root 0.2647564068617554 17.85170228644224 -1.64105578962511 -1.2313701045406857 2.5768096637175284 0.39036906919266956
lfemur 14.171863929234576 -6.404509052328376 -23.471722431667096
ltibia 28.899481530624495
lfoot 0.772331781994918 -7.548294161637414
ltoes -11.926678215964492
rfemur -24.705483895004516 4.684675372917565 21.32837443043875
rtibia 27.031618397448817
rfoot -5.430642213514826 -4.642475951344029
rtoes 1.1735678695584713
lowerback nan -1.3207810049260336 -2.161364346706355
upperback 0.3371956150232194 -1.7119021863377655 2.1889750759486923
thorax -4.586710942344544 -0.7804585408048224 3.347498333684877
lowerneck -17.12573365857345 -2.7283347557929813 -2.385099639622733
upperneck 21.6222452094554 -3.3663603800113906 0.581454208028381
head 9.646951967638124 -1.670732071169757 0.06785774121969157
lclavicle -2.49559679173781e-15 1.6489133161812005e-15
lhumerus -22.23737038000908 -4.224619010136245 83.2914541733404
lradius 30.82373422820276
lwrist 7.992847710141072
lhand -28.312307721581075 22.44870863602721
lfingers nan
lthumb -1.4681773193432668 52.93818429164489
rclavicle -2.1017302716698287e-15 1.8605154194503467e-15
rhumerus -34.6070142779507 -29.7651338128411 -72.81920424214633
rradius 19.573605981461913
rwrist 13.840689564791354
rhand -17.951816937820517 nan
rfingers nan
rthumb 8.37846874035879 -7.230518428872491
